<svg width="195" height="33" viewBox="0 0 195 33" fill="none" xmlns="http://www.w3.org/2000/svg">
<path d="M9.996 26.28C8.29733 26.28 6.804 25.9067 5.516 25.16C4.24667 24.4133 3.25733 23.3307 2.548 21.912C1.83867 20.4933 1.484 18.7853 1.484 16.788C1.484 14.8093 1.85733 13.1107 2.604 11.692C3.35067 10.2547 4.40533 9.15333 5.768 8.388C7.14933 7.62267 8.74533 7.24 10.556 7.24C12.5533 7.24 14.168 7.61333 15.4 8.36C16.632 9.088 17.612 10.2267 18.34 11.776L14.756 13.316C14.4573 12.3267 13.944 11.5987 13.216 11.132C12.5067 10.6467 11.6293 10.404 10.584 10.404C9.53867 10.404 8.63333 10.656 7.868 11.16C7.10267 11.6453 6.51467 12.364 6.104 13.316C5.69333 14.2493 5.488 15.3973 5.488 16.76C5.488 18.16 5.684 19.3453 6.076 20.316C6.468 21.268 7.04667 21.9867 7.812 22.472C8.596 22.9387 9.55733 23.172 10.696 23.172C11.312 23.172 11.8813 23.0973 12.404 22.948C12.9453 22.7987 13.412 22.5747 13.804 22.276C14.196 21.9773 14.504 21.5947 14.728 21.128C14.952 20.6613 15.064 20.12 15.064 19.504V19.084H10.22V16.256H18.396V26H15.68L15.4 21.968L16.072 22.444C15.6613 23.676 14.9333 24.628 13.888 25.3C12.8613 25.9533 11.564 26.28 9.996 26.28ZM28.6344 11.72C30.053 11.72 31.2944 12.0093 32.3584 12.588C33.441 13.1667 34.281 13.9973 34.8784 15.08C35.4944 16.1627 35.8024 17.4693 35.8024 19C35.8024 20.512 35.4944 21.8187 34.8784 22.92C34.281 24.0027 33.441 24.8333 32.3584 25.412C31.2944 25.9907 30.053 26.28 28.6344 26.28C27.2344 26.28 25.993 25.9907 24.9104 25.412C23.8277 24.8333 22.9784 24.0027 22.3624 22.92C21.765 21.8187 21.4664 20.512 21.4664 19C21.4664 17.4693 21.765 16.1627 22.3624 15.08C22.9784 13.9973 23.8277 13.1667 24.9104 12.588C25.993 12.0093 27.2344 11.72 28.6344 11.72ZM28.6344 14.576C27.925 14.576 27.3184 14.744 26.8144 15.08C26.329 15.3973 25.9557 15.8827 25.6944 16.536C25.433 17.1893 25.3024 18.0107 25.3024 19C25.3024 19.9893 25.433 20.8107 25.6944 21.464C25.9557 22.1173 26.329 22.612 26.8144 22.948C27.3184 23.2653 27.925 23.424 28.6344 23.424C29.325 23.424 29.913 23.2653 30.3984 22.948C30.9024 22.612 31.285 22.1173 31.5464 21.464C31.8077 20.8107 31.9384 19.9893 31.9384 19C31.9384 18.0107 31.8077 17.1893 31.5464 16.536C31.285 15.8827 30.9024 15.3973 30.3984 15.08C29.913 14.744 29.325 14.576 28.6344 14.576ZM43.1314 22.892H52.8754V26H39.2674V7.52H43.1314V22.892ZM61.8297 11.72C63.2484 11.72 64.4897 12.0093 65.5537 12.588C66.6364 13.1667 67.4764 13.9973 68.0737 15.08C68.6897 16.1627 68.9977 17.4693 68.9977 19C68.9977 20.512 68.6897 21.8187 68.0737 22.92C67.4764 24.0027 66.6364 24.8333 65.5537 25.412C64.4897 25.9907 63.2484 26.28 61.8297 26.28C60.4297 26.28 59.1884 25.9907 58.1057 25.412C57.023 24.8333 56.1737 24.0027 55.5577 22.92C54.9604 21.8187 54.6617 20.512 54.6617 19C54.6617 17.4693 54.9604 16.1627 55.5577 15.08C56.1737 13.9973 57.023 13.1667 58.1057 12.588C59.1884 12.0093 60.4297 11.72 61.8297 11.72ZM61.8297 14.576C61.1204 14.576 60.5137 14.744 60.0097 15.08C59.5244 15.3973 59.151 15.8827 58.8897 16.536C58.6284 17.1893 58.4977 18.0107 58.4977 19C58.4977 19.9893 58.6284 20.8107 58.8897 21.464C59.151 22.1173 59.5244 22.612 60.0097 22.948C60.5137 23.2653 61.1204 23.424 61.8297 23.424C62.5204 23.424 63.1084 23.2653 63.5937 22.948C64.0977 22.612 64.4804 22.1173 64.7417 21.464C65.003 20.8107 65.1337 19.9893 65.1337 19C65.1337 18.0107 65.003 17.1893 64.7417 16.536C64.4804 15.8827 64.0977 15.3973 63.5937 15.08C63.1084 14.744 62.5204 14.576 61.8297 14.576ZM78.5914 11.72C80.0101 11.72 81.2514 12.0093 82.3154 12.588C83.3981 13.1667 84.2381 13.9973 84.8354 15.08C85.4514 16.1627 85.7594 17.4693 85.7594 19C85.7594 20.512 85.4514 21.8187 84.8354 22.92C84.2381 24.0027 83.3981 24.8333 82.3154 25.412C81.2514 25.9907 80.0101 26.28 78.5914 26.28C77.1914 26.28 75.9501 25.9907 74.8674 25.412C73.7847 24.8333 72.9354 24.0027 72.3194 22.92C71.7221 21.8187 71.4234 20.512 71.4234 19C71.4234 17.4693 71.7221 16.1627 72.3194 15.08C72.9354 13.9973 73.7847 13.1667 74.8674 12.588C75.9501 12.0093 77.1914 11.72 78.5914 11.72ZM78.5914 14.576C77.8821 14.576 77.2754 14.744 76.7714 15.08C76.2861 15.3973 75.9127 15.8827 75.6514 16.536C75.3901 17.1893 75.2594 18.0107 75.2594 19C75.2594 19.9893 75.3901 20.8107 75.6514 21.464C75.9127 22.1173 76.2861 22.612 76.7714 22.948C77.2754 23.2653 77.8821 23.424 78.5914 23.424C79.2821 23.424 79.8701 23.2653 80.3554 22.948C80.8594 22.612 81.2421 22.1173 81.5034 21.464C81.7647 20.8107 81.8954 19.9893 81.8954 19C81.8954 18.0107 81.7647 17.1893 81.5034 16.536C81.2421 15.8827 80.8594 15.3973 80.3554 15.08C79.8701 14.744 79.2821 14.576 78.5914 14.576ZM103.221 12L96.7531 18.748L95.9971 19.112L91.7971 23.62L91.7411 19.532L98.8531 12H103.221ZM92.8051 5.868V26H88.9691V5.868H92.8051ZM97.2851 16.452L103.557 26H99.2171L94.6531 18.692L97.2851 16.452ZM113.629 17.068C113.629 16.2653 113.395 15.64 112.929 15.192C112.481 14.744 111.883 14.52 111.137 14.52C110.446 14.52 109.839 14.6973 109.317 15.052C108.794 15.4067 108.411 15.9947 108.169 16.816L104.893 15.808C105.21 14.576 105.901 13.5867 106.965 12.84C108.047 12.0933 109.494 11.72 111.305 11.72C112.537 11.72 113.61 11.916 114.525 12.308C115.439 12.6813 116.149 13.2507 116.653 14.016C117.175 14.7813 117.437 15.7427 117.437 16.9V22.584C117.437 23.2933 117.773 23.648 118.445 23.648C118.762 23.648 119.061 23.6013 119.341 23.508L119.117 25.888C118.631 26.1307 118.025 26.252 117.297 26.252C116.643 26.252 116.055 26.14 115.533 25.916C115.01 25.692 114.599 25.356 114.301 24.908C114.002 24.4413 113.853 23.8627 113.853 23.172V23.06L114.525 22.948C114.413 23.6573 114.105 24.264 113.601 24.768C113.097 25.2533 112.481 25.6267 111.753 25.888C111.043 26.1493 110.306 26.28 109.541 26.28C108.589 26.28 107.767 26.14 107.077 25.86C106.386 25.5613 105.854 25.132 105.481 24.572C105.107 24.012 104.921 23.3213 104.921 22.5C104.921 21.4547 105.257 20.6053 105.929 19.952C106.601 19.28 107.562 18.8227 108.813 18.58L114.077 17.516L114.049 19.896L110.689 20.568C110.054 20.6987 109.569 20.876 109.233 21.1C108.915 21.3053 108.757 21.6507 108.757 22.136C108.757 22.6027 108.925 22.9573 109.261 23.2C109.615 23.4427 110.035 23.564 110.521 23.564C110.913 23.564 111.295 23.5173 111.669 23.424C112.042 23.3307 112.378 23.1813 112.677 22.976C112.975 22.7707 113.209 22.4907 113.377 22.136C113.545 21.7813 113.629 21.352 113.629 20.848V17.068ZM125.507 5.868V21.688C125.507 22.3413 125.619 22.7987 125.843 23.06C126.067 23.3213 126.44 23.452 126.963 23.452C127.28 23.452 127.542 23.4333 127.747 23.396C127.952 23.34 128.214 23.2653 128.531 23.172L128.195 25.692C127.878 25.8787 127.476 26.0187 126.991 26.112C126.524 26.224 126.058 26.28 125.591 26.28C124.228 26.28 123.23 25.9533 122.595 25.3C121.979 24.628 121.671 23.564 121.671 22.108V5.868H125.507Z" fill="#ED733F"/>
<path d="M142.668 12.08L139.14 15.896L138.996 15.908L136.944 18.116L136.824 16.712L141.096 12.08H142.668ZM137.46 12.08V20H136.176V12.08H137.46ZM139.404 14.912L142.74 20H141.228L138.384 15.632L139.404 14.912ZM146.1 13.88C146.684 13.88 147.2 14.004 147.648 14.252C148.096 14.5 148.444 14.86 148.692 15.332C148.948 15.796 149.076 16.352 149.076 17C149.076 17.648 148.948 18.208 148.692 18.68C148.444 19.144 148.096 19.5 147.648 19.748C147.2 19.996 146.684 20.12 146.1 20.12C145.516 20.12 145 19.996 144.552 19.748C144.104 19.5 143.752 19.144 143.496 18.68C143.24 18.208 143.112 17.648 143.112 17C143.112 16.352 143.24 15.796 143.496 15.332C143.752 14.86 144.104 14.5 144.552 14.252C145 14.004 145.516 13.88 146.1 13.88ZM146.1 14.888C145.74 14.888 145.432 14.972 145.176 15.14C144.928 15.3 144.736 15.536 144.6 15.848C144.464 16.16 144.396 16.544 144.396 17C144.396 17.448 144.464 17.832 144.6 18.152C144.736 18.464 144.928 18.704 145.176 18.872C145.432 19.032 145.74 19.112 146.1 19.112C146.46 19.112 146.764 19.032 147.012 18.872C147.26 18.704 147.452 18.464 147.588 18.152C147.724 17.832 147.792 17.448 147.792 17C147.792 16.544 147.724 16.16 147.588 15.848C147.452 15.536 147.26 15.3 147.012 15.14C146.764 14.972 146.46 14.888 146.1 14.888ZM150.691 20V14H151.783L151.903 15.08C152.063 14.688 152.299 14.392 152.611 14.192C152.931 13.984 153.323 13.88 153.787 13.88C153.907 13.88 154.027 13.892 154.147 13.916C154.267 13.932 154.367 13.96 154.447 14L154.267 15.128C154.179 15.096 154.079 15.072 153.967 15.056C153.863 15.032 153.719 15.02 153.535 15.02C153.287 15.02 153.043 15.088 152.803 15.224C152.563 15.352 152.363 15.548 152.203 15.812C152.051 16.076 151.975 16.412 151.975 16.82V20H150.691ZM158.112 13.88C158.696 13.88 159.212 14.004 159.66 14.252C160.108 14.5 160.456 14.86 160.704 15.332C160.96 15.796 161.088 16.352 161.088 17C161.088 17.648 160.96 18.208 160.704 18.68C160.456 19.144 160.108 19.5 159.66 19.748C159.212 19.996 158.696 20.12 158.112 20.12C157.528 20.12 157.012 19.996 156.564 19.748C156.116 19.5 155.764 19.144 155.508 18.68C155.252 18.208 155.124 17.648 155.124 17C155.124 16.352 155.252 15.796 155.508 15.332C155.764 14.86 156.116 14.5 156.564 14.252C157.012 14.004 157.528 13.88 158.112 13.88ZM158.112 14.888C157.752 14.888 157.444 14.972 157.188 15.14C156.94 15.3 156.748 15.536 156.612 15.848C156.476 16.16 156.408 16.544 156.408 17C156.408 17.448 156.476 17.832 156.612 18.152C156.748 18.464 156.94 18.704 157.188 18.872C157.444 19.032 157.752 19.112 158.112 19.112C158.472 19.112 158.776 19.032 159.024 18.872C159.272 18.704 159.464 18.464 159.6 18.152C159.736 17.832 159.804 17.448 159.804 17C159.804 16.544 159.736 16.16 159.6 15.848C159.464 15.536 159.272 15.3 159.024 15.14C158.776 14.972 158.472 14.888 158.112 14.888ZM162.703 20V14H163.843L163.927 15.56L163.759 15.392C163.871 15.048 164.031 14.764 164.239 14.54C164.455 14.308 164.707 14.14 164.995 14.036C165.291 13.932 165.603 13.88 165.931 13.88C166.355 13.88 166.735 13.964 167.071 14.132C167.415 14.292 167.687 14.536 167.887 14.864C168.087 15.192 168.187 15.608 168.187 16.112V20H166.903V16.508C166.903 15.916 166.779 15.508 166.531 15.284C166.291 15.052 165.987 14.936 165.619 14.936C165.355 14.936 165.099 15 164.851 15.128C164.603 15.248 164.395 15.444 164.227 15.716C164.067 15.988 163.987 16.352 163.987 16.808V20H162.703ZM173.601 16.148C173.601 15.748 173.489 15.44 173.265 15.224C173.049 15 172.749 14.888 172.365 14.888C172.005 14.888 171.697 14.972 171.441 15.14C171.185 15.308 170.997 15.58 170.877 15.956L169.797 15.5C169.949 15.012 170.245 14.62 170.685 14.324C171.133 14.028 171.709 13.88 172.413 13.88C172.893 13.88 173.317 13.96 173.685 14.12C174.053 14.272 174.341 14.504 174.549 14.816C174.765 15.128 174.873 15.528 174.873 16.016V18.692C174.873 18.988 175.021 19.136 175.317 19.136C175.461 19.136 175.601 19.116 175.737 19.076L175.665 19.964C175.481 20.052 175.249 20.096 174.969 20.096C174.713 20.096 174.481 20.052 174.273 19.964C174.073 19.868 173.913 19.728 173.793 19.544C173.681 19.352 173.625 19.116 173.625 18.836V18.752L173.889 18.74C173.817 19.052 173.669 19.312 173.445 19.52C173.221 19.72 172.961 19.872 172.665 19.976C172.369 20.072 172.069 20.12 171.765 20.12C171.389 20.12 171.049 20.06 170.745 19.94C170.449 19.82 170.213 19.64 170.037 19.4C169.869 19.152 169.785 18.848 169.785 18.488C169.785 18.04 169.929 17.672 170.217 17.384C170.513 17.096 170.929 16.9 171.465 16.796L173.793 16.34L173.781 17.24L172.089 17.588C171.753 17.652 171.501 17.744 171.333 17.864C171.165 17.984 171.081 18.16 171.081 18.392C171.081 18.616 171.165 18.796 171.333 18.932C171.509 19.06 171.741 19.124 172.029 19.124C172.229 19.124 172.421 19.1 172.605 19.052C172.797 19.004 172.969 18.928 173.121 18.824C173.273 18.712 173.389 18.572 173.469 18.404C173.557 18.228 173.601 18.02 173.601 17.78V16.148ZM179.269 20.12C178.773 20.12 178.321 19.996 177.913 19.748C177.513 19.5 177.197 19.144 176.965 18.68C176.733 18.216 176.617 17.66 176.617 17.012C176.617 16.34 176.741 15.772 176.989 15.308C177.237 14.844 177.569 14.492 177.985 14.252C178.401 14.004 178.857 13.88 179.353 13.88C179.865 13.88 180.297 14.02 180.649 14.3C181.001 14.58 181.237 14.944 181.357 15.392L181.213 15.524V11.3H182.497V20H181.357L181.261 18.368L181.429 18.38C181.373 18.74 181.241 19.052 181.033 19.316C180.825 19.572 180.565 19.772 180.253 19.916C179.949 20.052 179.621 20.12 179.269 20.12ZM179.545 19.088C179.889 19.088 180.185 19 180.433 18.824C180.681 18.648 180.873 18.4 181.009 18.08C181.145 17.76 181.213 17.376 181.213 16.928C181.213 16.512 181.145 16.156 181.009 15.86C180.873 15.556 180.681 15.324 180.433 15.164C180.193 15.004 179.913 14.924 179.593 14.924C179.057 14.924 178.641 15.108 178.345 15.476C178.049 15.844 177.901 16.352 177.901 17C177.901 17.648 178.045 18.16 178.333 18.536C178.621 18.904 179.025 19.088 179.545 19.088ZM187.956 16.148C187.956 15.748 187.844 15.44 187.62 15.224C187.404 15 187.104 14.888 186.72 14.888C186.36 14.888 186.052 14.972 185.796 15.14C185.54 15.308 185.352 15.58 185.232 15.956L184.152 15.5C184.304 15.012 184.6 14.62 185.04 14.324C185.488 14.028 186.064 13.88 186.768 13.88C187.248 13.88 187.672 13.96 188.04 14.12C188.408 14.272 188.696 14.504 188.904 14.816C189.12 15.128 189.228 15.528 189.228 16.016V18.692C189.228 18.988 189.376 19.136 189.672 19.136C189.816 19.136 189.956 19.116 190.092 19.076L190.02 19.964C189.836 20.052 189.604 20.096 189.324 20.096C189.068 20.096 188.836 20.052 188.628 19.964C188.428 19.868 188.268 19.728 188.148 19.544C188.036 19.352 187.98 19.116 187.98 18.836V18.752L188.244 18.74C188.172 19.052 188.024 19.312 187.8 19.52C187.576 19.72 187.316 19.872 187.02 19.976C186.724 20.072 186.424 20.12 186.12 20.12C185.744 20.12 185.404 20.06 185.1 19.94C184.804 19.82 184.568 19.64 184.392 19.4C184.224 19.152 184.14 18.848 184.14 18.488C184.14 18.04 184.284 17.672 184.572 17.384C184.868 17.096 185.284 16.9 185.82 16.796L188.148 16.34L188.136 17.24L186.444 17.588C186.108 17.652 185.856 17.744 185.688 17.864C185.52 17.984 185.436 18.16 185.436 18.392C185.436 18.616 185.52 18.796 185.688 18.932C185.864 19.06 186.096 19.124 186.384 19.124C186.584 19.124 186.776 19.1 186.96 19.052C187.152 19.004 187.324 18.928 187.476 18.824C187.628 18.712 187.744 18.572 187.824 18.404C187.912 18.228 187.956 18.02 187.956 17.78V16.148ZM192.58 11.3V18.32C192.58 18.616 192.632 18.82 192.736 18.932C192.84 19.044 193.012 19.1 193.252 19.1C193.396 19.1 193.516 19.092 193.612 19.076C193.716 19.052 193.844 19.012 193.996 18.956L193.852 19.916C193.716 19.98 193.56 20.028 193.384 20.06C193.208 20.1 193.032 20.12 192.856 20.12C192.32 20.12 191.924 19.984 191.668 19.712C191.42 19.432 191.296 19.004 191.296 18.428V11.3H192.58Z" fill="#ED733F"/>
</svg>
